<svg xmlns="http://www.w3.org/2000/svg" viewBox="0 0 512 512">
  <defs>
    <radialGradient id="bg" cx="50%" cy="25%" r="85%">
      <stop offset="0%" stop-color="#4f9bff"/>
      <stop offset="100%" stop-color="#0a58ca"/>
    </radialGradient>
  </defs>
  <rect width="512" height="512" fill="url(#bg)"/>
  <g transform="translate(86 86)">
    <rect x="0" y="0" width="340" height="340" rx="66" fill="#ffffff" opacity="0.14"/>
    <path fill="#ffffff" d="M80 96h180v148c0 28-22 50-50 50H130c-28 0-50-22-50-50V96zm38 38v110c0 6 5 11 12 11h80c7 0 12-5 12-11V134H118zm26-56h52c6 0 10 4 10 10v8h-72v-8c0-6 4-10 10-10z"/>
    <path fill="#ffffff" d="M150 166h20v60h-20zm32 0h20v60h-20z"/>
  </g>
</svg>
