<svg xmlns="http://www.w3.org/2000/svg" viewBox="0 0 512 512">
  <defs>
    <linearGradient id="g" x1="0" y1="0" x2="1" y2="1">
      <stop offset="0%" stop-color="#0d6efd"/>
      <stop offset="100%" stop-color="#0a58ca"/>
    </linearGradient>
  </defs>
  <rect x="24" y="24" width="464" height="464" rx="96" fill="url(#g)"/>
  <path fill="#ffffff" d="M146 166h220v180c0 30-24 54-54 54H200c-30 0-54-24-54-54V166zm40 42v138c0 8 6 14 14 14h112c8 0 14-6 14-14V208H186zm28-64h84c6 0 10 4 10 10v12H204v-12c0-6 4-10 10-10z"/>
  <path fill="#ffffff" d="M220 248h26v74h-26zm46 0h26v74h-26z"/>
</svg>
